# xmcd CD database file
#
# Track frame offsets:
#	183
#	14598
#	26723
#	39438
#	50440
#	64955
#	77853
#	90693
#	100825
#	112395
#	133263
#	156933
#	175528
#	188340
#
# Disc length: 2787 seconds
#
# Revision: 2
# Processed by: cddbd v1.5.2PL0 Copyright (c) Steve Scherf et al.
# Submitted via: CDex 1.51
#
DISCID=bb0ae10e
DTITLE=Yancey, Jimmy and Mama - Chicago Piano (Volume 1)
DYEAR=1900
DGENRE=Blues
TTITLE0=Mournful Blues
TTITLE1=Yancey Special
TTITLE2=How Long Blues
TTITLE3=Yancey's Bugle Call
TTITLE4=35th And Dearborn
TTITLE5=Shave 'Em Dry
TTITLE6=Salute To Pinetop
TTITLE7=Blues For Albert
TTITLE8=Yancey Special (Second Version)
TTITLE9=Make Me A Pallet On The floor
TTITLE10=Four O'Clock Blues
TTITLE11=Monkey Woman Blues
TTITLE12=Santa Fe Blues
TTITLE13=How Long Blues
EXTD=Atlantic 782368-2
EXTT0=
EXTT1=
EXTT2=
EXTT3=
EXTT4=
EXTT5=
EXTT6=
EXTT7=
EXTT8=
EXTT9=
EXTT10=
EXTT11=
EXTT12=
EXTT13=
PLAYORDER=
